<svg width="1164" height="116" viewBox="0 0 1164 116" fill="none" xmlns="http://www.w3.org/2000/svg">
<g clip-path="url(#clip0_432_3664)">
<path d="M280.6 58.7998C280.6 63.9698 279.62 68.3398 277.67 71.9198C275.72 75.4898 273.07 78.3898 269.72 80.6198C266.38 82.8498 262.6 84.4698 258.4 85.4798C254.2 86.4898 249.82 86.9898 245.28 86.9898C241.79 86.9898 238.36 86.6298 235 85.9198V92.4198C235 94.4398 235.5 95.8898 236.51 96.7698C237.52 97.6498 238.7 98.3798 240.04 98.9498C241.38 99.5198 242.56 100.31 243.57 101.31C244.58 102.31 245.08 103.94 245.08 106.17C245.08 108.57 244.4 110.31 243.03 111.4C241.66 112.49 239.85 113.04 237.58 113.04H203.02C200.79 113.04 198.98 112.48 197.6 111.37C196.21 110.26 195.52 108.52 195.52 106.17C195.52 104.03 195.94 102.42 196.78 101.35C197.62 100.28 198.61 99.4098 199.74 98.7298C200.88 98.0598 201.86 97.2798 202.7 96.3998C203.54 95.5198 203.96 94.1898 203.96 92.4298V46.3998C203.96 44.5898 203.54 43.2398 202.7 42.3298C201.86 41.4298 200.87 40.6398 199.74 39.9698C198.6 39.2998 197.62 38.4398 196.78 37.3798C195.94 36.3298 195.52 34.7498 195.52 32.6498C195.52 30.2998 196.21 28.5598 197.6 27.4498C198.99 26.3398 200.79 25.7798 203.02 25.7798H235.81C241.06 25.7798 246.33 26.3498 251.61 27.4798C256.89 28.6198 261.71 30.4598 266.08 32.9998C270.45 35.5398 273.96 38.9398 276.61 43.1798C279.26 47.4298 280.58 52.6398 280.58 58.8198L280.6 58.7998ZM250.77 57.8498C250.77 53.0998 249.38 48.9398 246.61 45.3598C243.84 41.7898 239.97 39.9198 235.01 39.7498V74.4298C235.47 74.4698 235.93 74.4898 236.4 74.4898C241.28 74.4898 244.89 72.8298 247.25 69.5098C249.6 66.1898 250.78 62.2998 250.78 57.8398L250.77 57.8498Z" fill="white"/>
<path d="M281.42 98.5301C281.42 94.6601 282.32 91.4401 284.13 88.8501C285.94 86.2601 288.3 84.1801 291.22 82.6101C294.14 81.0301 297.31 79.9101 300.71 79.2401C304.12 78.5701 307.39 78.2301 310.55 78.2301C311.47 78.2301 312.42 78.2401 313.39 78.2601C314.36 78.2801 315.3 78.3801 316.23 78.5401V62.1401C316.23 61.0901 316.01 59.8701 315.57 58.4801C315.13 57.0901 314.23 56.4001 312.89 56.4001C311.55 56.4001 310.78 56.9401 310.46 58.0101C310.14 59.0801 309.99 60.1001 309.99 61.0701C309.99 61.4901 310 61.9201 310.02 62.3601C310.04 62.8001 310.05 63.2501 310.05 63.7201C310.05 68.0501 308.56 71.0901 305.57 72.8301C302.58 74.5801 299.18 75.4501 295.35 75.4501C292.15 75.4501 289.38 74.7401 287.03 73.3101C284.68 71.8801 283.5 69.3601 283.5 65.7401C283.5 64.3101 283.78 62.9201 284.35 61.5801C284.92 60.2401 285.64 59.0401 286.53 57.9901C289.09 54.8801 292.32 52.5001 296.21 50.8601C300.1 49.2201 304.2 48.1001 308.51 47.4901C312.82 46.8801 316.87 46.5801 320.65 46.5801C324.94 46.5801 328.87 47.1901 332.44 48.4101C336.01 49.6301 338.87 51.6601 341.02 54.5001C343.17 57.3401 344.24 61.1501 344.24 65.9501V95.0201C344.24 95.7401 344.41 96.3701 344.74 96.9101C345.08 97.4601 345.64 97.7301 346.44 97.7301C347.07 97.7301 347.61 97.5301 348.05 97.1301C348.49 96.7301 349.03 96.5301 349.66 96.5301C350.88 96.5301 351.79 96.9501 352.4 97.7901C353.01 98.6301 353.31 99.6201 353.31 100.75C353.31 103.69 352.42 106.23 350.63 108.35C348.84 110.47 346.63 112.09 343.98 113.21C341.33 114.33 338.66 114.88 335.97 114.88C332.82 114.88 329.63 114.19 326.42 112.8C323.21 111.41 320.99 109.25 319.77 106.3C317.63 109.29 314.69 111.46 310.97 112.83C307.25 114.2 303.6 114.88 300.03 114.88C296.75 114.88 293.69 114.26 290.85 113.02C288.01 111.78 285.73 109.94 284.01 107.5C282.29 105.06 281.42 102.08 281.42 98.5501V98.5301ZM309.86 92.9801C309.86 94.6601 310.26 96.2501 311.06 97.7401C311.86 99.2301 313.22 99.9801 315.16 99.9801C315.54 99.9801 315.9 99.9401 316.23 99.8501V86.8001C315.51 86.5101 314.78 86.3601 314.02 86.3601C312.42 86.3601 311.33 87.1501 310.74 88.7201C310.15 90.3001 309.86 91.7201 309.86 92.9801Z" fill="white"/>
<path d="M384.4 114.86C377.21 114.86 371.55 113.19 367.41 109.85C363.27 106.51 361.2 101.05 361.2 93.4897V66.0597C361.2 64.2497 360.8 62.9097 360 62.0197C359.2 61.1397 358.28 60.4097 357.23 59.8397C356.18 59.2697 355.25 58.5797 354.46 57.7597C353.66 56.9397 353.26 55.6897 353.26 54.0097C353.26 52.3297 353.87 50.9297 355.09 49.9397C356.31 48.9497 357.74 48.4597 359.38 48.4597H362.22C363.44 48.4597 364.65 47.8397 365.85 46.5997C367.05 45.3597 368.27 43.8197 369.51 41.9697C370.75 40.1197 372.05 38.2797 373.42 36.4497C374.79 34.6197 376.25 33.0897 377.8 31.8497C379.36 30.6097 381.06 29.9897 382.91 29.9897C385.01 29.9897 386.65 30.5797 387.83 31.7597C389.01 32.9397 389.6 34.5797 389.6 36.6797V48.4697H403.91C405.51 48.4697 406.87 48.8497 408.01 49.6097C409.15 50.3697 409.71 51.6297 409.71 53.3897C409.71 55.7397 408.96 57.5297 407.47 58.7497C405.98 59.9697 404.18 60.7797 402.08 61.1797C399.98 61.5797 398 61.7797 396.15 61.7797H389.59V86.7497C389.59 88.8097 389.99 90.7498 390.79 92.5798C391.59 94.4098 393.23 95.3197 395.71 95.3197C397.35 95.3197 398.75 94.8497 399.9 93.8997C401.06 92.9497 402.15 92.0197 403.18 91.0897C404.21 90.1697 405.31 89.6997 406.49 89.6997C407.58 89.6997 408.35 90.2297 408.79 91.2797C409.23 92.3297 409.45 93.2798 409.45 94.1198C409.45 98.3698 408.17 102.05 405.6 105.16C403.03 108.27 399.83 110.67 395.98 112.35C392.13 114.03 388.28 114.87 384.41 114.87L384.4 114.86Z" fill="white"/>
<path d="M415.109 98.5301C415.109 94.6601 416.009 91.4401 417.819 88.8501C419.629 86.2601 421.989 84.1801 424.909 82.6101C427.829 81.0301 430.999 79.9101 434.399 79.2401C437.809 78.5701 441.079 78.2301 444.239 78.2301C445.159 78.2301 446.109 78.2401 447.079 78.2601C448.049 78.2801 448.989 78.3801 449.919 78.5401V62.1401C449.919 61.0901 449.699 59.8701 449.259 58.4801C448.819 57.0901 447.919 56.4001 446.579 56.4001C445.239 56.4001 444.469 56.9401 444.149 58.0101C443.829 59.0801 443.679 60.1001 443.679 61.0701C443.679 61.4901 443.689 61.9201 443.709 62.3601C443.729 62.8001 443.739 63.2501 443.739 63.7201C443.739 68.0501 442.249 71.0901 439.259 72.8301C436.269 74.5801 432.869 75.4501 429.039 75.4501C425.839 75.4501 423.069 74.7401 420.719 73.3101C418.369 71.8801 417.189 69.3601 417.189 65.7401C417.189 64.3101 417.469 62.9201 418.039 61.5801C418.609 60.2401 419.329 59.0401 420.219 57.9901C422.779 54.8801 426.009 52.5001 429.899 50.8601C433.789 49.2201 437.889 48.1001 442.199 47.4901C446.509 46.8801 450.559 46.5801 454.339 46.5801C458.629 46.5801 462.559 47.1901 466.129 48.4101C469.699 49.6301 472.559 51.6601 474.709 54.5001C476.859 57.3401 477.929 61.1501 477.929 65.9501V95.0201C477.929 95.7401 478.099 96.3701 478.429 96.9101C478.769 97.4601 479.329 97.7301 480.129 97.7301C480.759 97.7301 481.299 97.5301 481.739 97.1301C482.179 96.7301 482.719 96.5301 483.349 96.5301C484.569 96.5301 485.479 96.9501 486.089 97.7901C486.699 98.6301 486.999 99.6201 486.999 100.75C486.999 103.69 486.109 106.23 484.319 108.35C482.529 110.47 480.319 112.09 477.669 113.21C475.019 114.32 472.349 114.88 469.659 114.88C466.509 114.88 463.319 114.19 460.109 112.8C456.899 111.41 454.679 109.25 453.459 106.3C451.319 109.29 448.379 111.46 444.659 112.83C440.939 114.2 437.289 114.88 433.719 114.88C430.439 114.88 427.379 114.26 424.539 113.02C421.699 111.78 419.419 109.94 417.699 107.5C415.979 105.06 415.109 102.08 415.109 98.5501V98.5301ZM443.549 92.9801C443.549 94.6601 443.949 96.2501 444.749 97.7401C445.549 99.2301 446.909 99.9801 448.849 99.9801C449.229 99.9801 449.589 99.9401 449.919 99.8501V86.8001C449.199 86.5101 448.469 86.3601 447.709 86.3601C446.109 86.3601 445.019 87.1501 444.429 88.7201C443.839 90.3001 443.549 91.7201 443.549 92.9801Z" fill="white"/>
<path d="M517.959 57.22C516.529 57.22 515.249 57.54 514.109 58.17C512.969 58.8 512.409 59.94 512.409 61.58C512.409 62.93 512.729 63.96 513.359 64.67C513.989 65.39 514.889 65.99 516.069 66.5C517.329 67.05 518.659 67.45 520.039 67.7C521.419 67.95 522.769 68.23 524.079 68.52C527.949 69.36 531.559 70.78 534.929 72.78C538.289 74.78 541.019 77.34 543.099 80.47C545.179 83.6 546.219 87.31 546.219 91.6C546.219 97.36 544.919 101.94 542.309 105.35C539.699 108.76 536.239 111.19 531.939 112.66C527.629 114.13 522.909 114.87 517.779 114.87C516.479 114.87 514.679 114.7 512.389 114.37C510.099 114.03 508.409 113.57 507.309 112.98H507.249C506.829 112.77 506.139 112.54 505.169 112.29C504.199 112.04 503.489 111.91 503.029 111.91C501.729 111.91 500.609 112.43 499.689 113.45C498.759 114.48 497.629 114.99 496.279 114.99C494.469 114.99 493.049 114.4 492.019 113.22C490.989 112.04 490.209 110.65 489.689 109.03C489.159 107.41 488.689 105.91 488.269 104.52C487.969 103.34 487.639 102.18 487.259 101.02C486.879 99.86 486.689 98.68 486.689 97.46C486.689 95.27 487.279 93.51 488.459 92.16C489.639 90.82 491.339 90.14 493.569 90.14C495.799 90.14 497.559 90.61 498.989 91.56C500.419 92.51 501.689 93.67 502.809 95.06C503.919 96.45 505.059 97.85 506.219 99.25C507.379 100.66 508.769 101.84 510.409 102.78C512.049 103.72 514.109 104.2 516.589 104.2C518.309 104.2 519.619 103.69 520.499 102.66C521.379 101.63 521.819 100.3 521.819 98.66C521.819 96.31 521.189 94.79 519.929 94.12C518.669 93.45 517.049 92.92 515.069 92.54C511.449 91.83 508.019 90.98 504.759 90.02C501.499 89.05 498.619 87.73 496.119 86.05C493.619 84.37 491.639 82.14 490.189 79.37C488.739 76.6 488.009 73.02 488.009 68.65C488.009 63.48 489.419 59.27 492.229 56.01C495.049 52.75 498.629 50.35 502.979 48.79C507.329 47.23 511.759 46.46 516.249 46.46C517.969 46.46 519.669 46.52 521.329 46.65C522.989 46.78 524.639 47.11 526.279 47.66C526.489 47.7 526.979 47.87 527.759 48.16C528.539 48.46 529.679 48.88 531.199 49.42C532.589 49.42 533.769 48.93 534.759 47.94C535.749 46.95 536.939 46.46 538.319 46.46C540.089 46.46 541.389 47.14 542.229 48.51C543.069 49.88 543.669 51.46 544.029 53.27C544.389 55.08 544.669 56.61 544.879 57.87C545.049 58.84 545.219 59.81 545.379 60.8C545.549 61.79 545.629 62.77 545.629 63.73C545.629 65.41 545.239 67 544.459 68.49C543.679 69.98 542.299 70.73 540.329 70.73C538.359 70.73 536.609 70.05 535.099 68.68C533.589 67.31 532.069 65.75 530.559 63.98C529.049 62.21 527.299 60.65 525.329 59.28C523.349 57.91 520.889 57.23 517.949 57.23L517.959 57.22Z" fill="white"/>
<path d="M611.91 46.4399C613.63 46.4399 614.95 47.0399 615.85 48.2399C616.75 49.4399 617.211 50.8399 617.211 52.4299V58.2299C620.531 55.1599 624.19 52.4299 628.18 50.0299C632.17 47.6299 636.13 46.4399 640.04 46.4399C643.95 46.4399 647.5 47.4499 650.19 49.4699C652.88 51.4899 654.911 54.1199 656.281 57.3499C657.641 60.5899 658.331 64.0799 658.331 67.8199V94.0499C658.331 95.2299 658.38 96.3799 658.49 97.5199C658.6 98.6599 659.05 99.7299 659.85 100.74C660.82 101.96 661.671 102.91 662.401 103.58C663.141 104.25 663.5 105.49 663.5 107.3C663.5 109.11 662.93 110.57 661.8 111.56C660.66 112.55 659.191 113.04 657.391 113.04H631.031C629.261 113.04 627.911 112.52 626.961 111.46C626.021 110.41 625.54 109.02 625.54 107.3C625.54 105.7 625.911 104.45 626.641 103.55C627.371 102.65 628.111 101.7 628.841 100.71C629.581 99.7199 629.94 98.3299 629.94 96.5199V74.6399C629.94 72.6599 629.551 70.7299 628.771 68.8399C627.991 66.9499 626.38 65.9999 623.94 65.9999C622.47 65.9999 621.21 66.2799 620.16 66.8499C619.11 67.4199 618.121 68.1399 617.201 69.0299V94.8199C617.201 95.9599 617.241 97.0999 617.331 98.2599C617.411 99.4199 617.831 100.48 618.591 101.44C619.471 102.49 620.21 103.34 620.8 103.99C621.39 104.64 621.68 105.75 621.68 107.3C621.68 109.02 621.21 110.41 620.26 111.46C619.32 112.51 617.96 113.04 616.19 113.04H589.831C588.021 113.04 586.55 112.55 585.42 111.56C584.28 110.57 583.72 109.15 583.72 107.3C583.72 105.91 583.98 104.83 584.51 104.05C585.03 103.27 585.63 102.55 586.31 101.87C586.98 101.2 587.58 100.38 588.11 99.4099C588.63 98.4399 588.901 97.1199 588.901 95.4399V72.0399C588.901 70.1499 588.601 68.7199 588.021 67.7499C587.431 66.7799 586.74 66.0199 585.94 65.4499C585.14 64.8799 584.45 64.2599 583.86 63.5899C583.27 62.9199 582.98 61.9099 582.98 60.5599C582.98 58.9199 583.53 57.6299 584.62 56.6799C585.71 55.7299 586.931 54.9899 588.281 54.4399L601.901 48.9499C603.501 48.2799 605.13 47.6899 606.79 47.1799C608.45 46.6699 610.16 46.4199 611.93 46.4199L611.91 46.4399Z" fill="white"/>
<path d="M668.789 98.5301C668.789 94.6601 669.689 91.4401 671.499 88.8501C673.309 86.2601 675.669 84.1801 678.599 82.6101C681.519 81.0301 684.679 79.9101 688.089 79.2401C691.499 78.5701 694.769 78.2301 697.929 78.2301C698.849 78.2301 699.799 78.2401 700.769 78.2601C701.739 78.2801 702.679 78.3801 703.609 78.5401V62.1401C703.609 61.0901 703.389 59.8701 702.949 58.4801C702.509 57.0901 701.609 56.4001 700.269 56.4001C698.929 56.4001 698.159 56.9401 697.839 58.0101C697.529 59.0801 697.369 60.1001 697.369 61.0701C697.369 61.4901 697.379 61.9201 697.399 62.3601C697.419 62.8001 697.429 63.2501 697.429 63.7201C697.429 68.0501 695.939 71.0901 692.949 72.8301C689.969 74.5801 686.559 75.4501 682.729 75.4501C679.529 75.4501 676.759 74.7401 674.409 73.3101C672.059 71.8801 670.879 69.3601 670.879 65.7401C670.879 64.3101 671.169 62.9201 671.729 61.5801C672.299 60.2401 673.019 59.0401 673.909 57.9901C676.479 54.8801 679.699 52.5001 683.589 50.8601C687.479 49.2201 691.579 48.1001 695.889 47.4901C700.199 46.8801 704.239 46.5801 708.029 46.5801C712.319 46.5801 716.249 47.1901 719.819 48.4101C723.389 49.6301 726.249 51.6601 728.399 54.5001C730.549 57.3401 731.619 61.1501 731.619 65.9501V95.0201C731.619 95.7401 731.789 96.3701 732.119 96.9101C732.459 97.4601 733.019 97.7301 733.819 97.7301C734.449 97.7301 734.989 97.5301 735.429 97.1301C735.869 96.7301 736.409 96.5301 737.039 96.5301C738.259 96.5301 739.169 96.9501 739.779 97.7901C740.389 98.6301 740.689 99.6201 740.689 100.75C740.689 103.69 739.799 106.23 738.009 108.35C736.219 110.47 733.999 112.09 731.359 113.21C728.719 114.33 726.039 114.88 723.349 114.88C720.199 114.88 717.009 114.19 713.799 112.8C710.579 111.41 708.359 109.25 707.149 106.3C705.009 109.29 702.069 111.46 698.349 112.83C694.629 114.2 690.979 114.88 687.409 114.88C684.129 114.88 681.069 114.26 678.239 113.02C675.399 111.78 673.119 109.94 671.399 107.5C669.679 105.06 668.809 102.08 668.809 98.5501L668.789 98.5301ZM697.229 92.9801C697.229 94.6601 697.629 96.2501 698.429 97.7401C699.229 99.2301 700.589 99.9801 702.529 99.9801C702.909 99.9801 703.259 99.9401 703.599 99.8501V86.8001C702.879 86.5101 702.149 86.3601 701.389 86.3601C699.789 86.3601 698.699 87.1501 698.109 88.7201C697.519 90.2901 697.229 91.7201 697.229 92.9801Z" fill="white"/>
<path d="M860.43 89.0699C860.43 90.9199 860.1 92.7099 859.45 94.4299C858.8 96.1499 857.97 97.7699 856.96 99.2899C854.48 103.07 851.34 106.16 847.53 108.56C843.72 110.96 839.62 112.72 835.2 113.86C830.79 115 826.39 115.56 822.02 115.56C812.77 115.56 804.71 113.62 797.84 109.73C790.97 105.84 785.64 100.41 781.86 93.4299C778.08 86.4499 776.18 78.3799 776.18 69.2199C776.18 63.0399 777.27 57.1899 779.46 51.6599C781.65 46.1299 784.71 41.2199 788.67 36.9399C792.63 32.6599 797.28 29.2899 802.64 26.8499C808 24.4099 813.85 23.1899 820.2 23.1899C822.18 23.1899 824.15 23.3099 826.13 23.5399C828.11 23.7699 830.04 24.1799 831.93 24.7699C833.11 25.1499 834.28 25.5699 835.46 26.0299C836.64 26.4899 837.86 26.7199 839.12 26.7199C840.26 26.7199 841.27 26.4399 842.18 25.8699C843.08 25.2999 843.98 24.7499 844.86 24.1999C845.74 23.6499 846.69 23.3799 847.7 23.3799C849.84 23.3799 851.25 24.0499 851.92 25.3999C852.59 26.7499 853.16 28.2599 853.62 29.9399L859.3 49.6099C859.47 50.1599 859.55 50.7699 859.55 51.4399C859.55 53.4199 858.75 54.8999 857.15 55.8899C855.55 56.8799 853.87 57.3699 852.11 57.3699C850.05 57.3699 848.38 56.6599 847.1 55.2299C845.82 53.7999 844.63 52.0299 843.54 49.8999C842.45 47.7799 841.18 45.6599 839.72 43.5599C838.27 41.4599 836.38 39.6899 834.04 38.2599C831.71 36.8299 828.63 36.1199 824.8 36.1199C820.97 36.1199 818.03 37.0999 815.72 39.0499C813.41 40.9999 811.64 43.5099 810.42 46.5499C809.2 49.5999 808.37 52.8199 807.93 56.2299C807.49 59.6399 807.27 62.7699 807.27 65.6299C807.27 70.7599 808.03 75.6799 809.54 80.3899C811.05 85.0999 813.56 88.9599 817.04 91.9599C820.53 94.9699 825.24 96.4699 831.17 96.4699C834.32 96.4699 837.18 95.8299 839.75 94.5499C842.32 93.2699 844.63 91.7799 846.69 90.0699C848.75 88.3599 850.55 86.8799 852.08 85.5899C853.61 84.3099 854.91 83.6699 855.96 83.6699C857.51 83.6699 858.65 84.2299 859.37 85.3399C860.08 86.4499 860.44 87.6999 860.44 89.0899L860.43 89.0699Z" fill="white"/>
<path d="M904.199 46.4402C911.139 46.4402 917.219 47.8702 922.449 50.7302C927.689 53.5902 931.769 57.6002 934.719 62.7702C937.659 67.9402 939.129 74.0202 939.129 80.9902C939.129 87.9602 937.509 93.8002 934.269 98.8702C931.029 103.94 926.689 107.87 921.249 110.66C915.799 113.45 909.759 114.85 903.119 114.85C896.139 114.85 890.019 113.41 884.769 110.53C879.519 107.65 875.419 103.59 872.499 98.3602C869.579 93.1302 868.119 87.0202 868.119 80.0402C868.119 73.0602 869.759 67.3002 873.039 62.2602C876.319 57.2202 880.689 53.3202 886.159 50.5602C891.629 47.8102 897.639 46.4302 904.189 46.4302L904.199 46.4402ZM907.789 100.92C908.839 100.92 909.589 100.37 910.029 99.2802C910.469 98.1902 910.749 96.9802 910.879 95.6502C911.009 94.3202 911.069 93.3102 911.069 92.5902C911.069 90.1902 910.879 87.8102 910.499 85.4302C910.119 83.0602 909.639 80.7102 909.049 78.4002C908.839 77.4802 908.439 76.0402 907.849 74.0802C907.259 72.1202 906.549 70.0802 905.709 67.9302C904.869 65.7802 903.939 63.9602 902.939 62.4402C901.939 60.9202 900.859 60.1702 899.719 60.1702C898.749 60.1702 898.049 60.7202 897.609 61.8102C897.169 62.9002 896.889 64.1102 896.759 65.4402C896.629 66.7702 896.569 67.7602 896.569 68.4402C896.569 69.5802 896.739 71.3902 897.069 73.8902C897.409 76.3902 897.899 79.1802 898.549 82.2502C899.199 85.3202 899.989 88.2702 900.909 91.1102C901.829 93.9502 902.869 96.2902 904.029 98.1402C905.189 99.9902 906.439 100.91 907.779 100.91L907.789 100.92Z" fill="white"/>
<path d="M974.76 46.4399C976.48 46.4399 977.8 47.0399 978.7 48.2399C979.6 49.4399 980.06 50.8399 980.06 52.4299V58.2299C983.38 55.1599 987.04 52.4299 991.03 50.0299C995.02 47.6299 998.98 46.4399 1002.89 46.4399C1006.8 46.4399 1010.35 47.4499 1013.04 49.4699C1015.73 51.4899 1017.76 54.1199 1019.13 57.3499C1020.49 60.5899 1021.18 64.0799 1021.18 67.8199V94.0499C1021.18 95.2299 1021.23 96.3799 1021.34 97.5199C1021.45 98.6599 1021.9 99.7299 1022.7 100.74C1023.67 101.96 1024.52 102.91 1025.25 103.58C1025.99 104.25 1026.35 105.49 1026.35 107.3C1026.35 109.11 1025.78 110.57 1024.65 111.56C1023.51 112.55 1022.04 113.04 1020.24 113.04H993.88C992.11 113.04 990.76 112.52 989.81 111.46C988.87 110.41 988.39 109.02 988.39 107.3C988.39 105.7 988.76 104.45 989.49 103.55C990.22 102.65 990.96 101.7 991.69 100.71C992.43 99.7199 992.79 98.3299 992.79 96.5199V74.6399C992.79 72.6599 992.4 70.7299 991.62 68.8399C990.84 66.9499 989.23 65.9999 986.79 65.9999C985.32 65.9999 984.06 66.2799 983.01 66.8499C981.96 67.4199 980.97 68.1399 980.05 69.0299V94.8199C980.05 95.9599 980.09 97.0999 980.18 98.2599C980.26 99.4199 980.68 100.48 981.44 101.44C982.32 102.49 983.06 103.34 983.65 103.99C984.24 104.64 984.53 105.75 984.53 107.3C984.53 109.02 984.06 110.41 983.11 111.46C982.17 112.51 980.81 113.04 979.04 113.04H952.68C950.87 113.04 949.4 112.55 948.27 111.56C947.13 110.57 946.57 109.15 946.57 107.3C946.57 105.91 946.83 104.83 947.36 104.05C947.88 103.27 948.48 102.55 949.16 101.87C949.83 101.2 950.43 100.38 950.96 99.4099C951.48 98.4399 951.75 97.1199 951.75 95.4399V72.0399C951.75 70.1499 951.45 68.7199 950.87 67.7499C950.28 66.7799 949.59 66.0199 948.79 65.4499C947.99 64.8799 947.3 64.2599 946.71 63.5899C946.12 62.9199 945.83 61.9099 945.83 60.5599C945.83 58.9199 946.38 57.6299 947.47 56.6799C948.56 55.7299 949.78 54.9899 951.13 54.4399L964.75 48.9499C966.35 48.2799 967.98 47.6899 969.64 47.1799C971.3 46.6699 973.01 46.4199 974.78 46.4199L974.76 46.4399Z" fill="white"/>
<path d="M1061.4 114.86C1054.21 114.86 1048.55 113.19 1044.4 109.85C1040.26 106.51 1038.19 101.05 1038.19 93.4897V66.0597C1038.19 64.2497 1037.79 62.9097 1036.99 62.0197C1036.19 61.1297 1035.27 60.4097 1034.22 59.8397C1033.17 59.2697 1032.24 58.5797 1031.45 57.7597C1030.66 56.9397 1030.25 55.6897 1030.25 54.0097C1030.25 52.3297 1030.86 50.9297 1032.08 49.9397C1033.3 48.9497 1034.73 48.4597 1036.37 48.4597H1039.21C1040.43 48.4597 1041.64 47.8397 1042.84 46.5997C1044.04 45.3597 1045.26 43.8197 1046.5 41.9697C1047.74 40.1197 1049.04 38.2797 1050.41 36.4497C1051.77 34.6197 1053.24 33.0897 1054.79 31.8497C1056.35 30.6097 1058.05 29.9897 1059.9 29.9897C1062 29.9897 1063.64 30.5797 1064.82 31.7597C1066 32.9397 1066.59 34.5797 1066.59 36.6797V48.4697H1080.9C1082.5 48.4697 1083.86 48.8497 1085 49.6097C1086.14 50.3697 1086.7 51.6297 1086.7 53.3897C1086.7 55.7397 1085.95 57.5297 1084.46 58.7497C1082.97 59.9697 1081.17 60.7797 1079.07 61.1797C1076.97 61.5797 1074.99 61.7797 1073.14 61.7797H1066.58V86.7497C1066.58 88.8097 1066.98 90.7498 1067.78 92.5798C1068.58 94.4098 1070.22 95.3197 1072.7 95.3197C1074.34 95.3197 1075.74 94.8497 1076.89 93.8997C1078.05 92.9497 1079.14 92.0197 1080.17 91.0897C1081.2 90.1697 1082.3 89.6997 1083.48 89.6997C1084.57 89.6997 1085.34 90.2297 1085.78 91.2797C1086.22 92.3297 1086.44 93.2798 1086.44 94.1198C1086.44 98.3698 1085.16 102.05 1082.59 105.16C1080.02 108.27 1076.82 110.67 1072.97 112.35C1069.12 114.03 1065.26 114.87 1061.4 114.87V114.86Z" fill="white"/>
<path d="M1092.11 98.5301C1092.11 94.6601 1093.01 91.4401 1094.82 88.8501C1096.63 86.2601 1098.99 84.1801 1101.91 82.6101C1104.83 81.0301 1108 79.9101 1111.4 79.2401C1114.81 78.5701 1118.08 78.2301 1121.24 78.2301C1122.17 78.2301 1123.11 78.2401 1124.08 78.2601C1125.05 78.2801 1125.99 78.3801 1126.92 78.5401V62.1401C1126.92 61.0901 1126.7 59.8701 1126.26 58.4801C1125.82 57.0901 1124.93 56.4001 1123.58 56.4001C1122.23 56.4001 1121.47 56.9401 1121.15 58.0101C1120.83 59.0801 1120.68 60.1001 1120.68 61.0701C1120.68 61.4901 1120.69 61.9201 1120.71 62.3601C1120.73 62.8001 1120.74 63.2501 1120.74 63.7201C1120.74 68.0501 1119.25 71.0901 1116.26 72.8301C1113.27 74.5801 1109.87 75.4501 1106.04 75.4501C1102.84 75.4501 1100.07 74.7401 1097.72 73.3101C1095.36 71.8801 1094.19 69.3601 1094.19 65.7401C1094.19 64.3101 1094.47 62.9201 1095.04 61.5801C1095.61 60.2401 1096.33 59.0401 1097.21 57.9901C1099.77 54.8801 1103 52.5001 1106.89 50.8601C1110.78 49.2201 1114.88 48.1001 1119.18 47.4901C1123.49 46.8801 1127.54 46.5801 1131.32 46.5801C1135.61 46.5801 1139.54 47.1901 1143.11 48.4101C1146.68 49.6301 1149.54 51.6601 1151.69 54.5001C1153.84 57.3401 1154.91 61.1501 1154.91 65.9501V95.0201C1154.91 95.7401 1155.08 96.3701 1155.41 96.9101C1155.75 97.4601 1156.31 97.7301 1157.11 97.7301C1157.74 97.7301 1158.28 97.5301 1158.72 97.1301C1159.16 96.7301 1159.7 96.5301 1160.33 96.5301C1161.55 96.5301 1162.46 96.9501 1163.07 97.7901C1163.68 98.6301 1163.99 99.6201 1163.99 100.75C1163.99 103.69 1163.09 106.23 1161.31 108.35C1159.52 110.47 1157.31 112.09 1154.66 113.21C1152.01 114.33 1149.34 114.88 1146.65 114.88C1143.5 114.88 1140.31 114.19 1137.1 112.8C1133.89 111.41 1131.67 109.25 1130.45 106.3C1128.31 109.29 1125.37 111.46 1121.65 112.83C1117.93 114.2 1114.28 114.88 1110.71 114.88C1107.43 114.88 1104.37 114.26 1101.53 113.02C1098.69 111.78 1096.41 109.94 1094.69 107.5C1092.96 105.06 1092.1 102.08 1092.1 98.5501L1092.11 98.5301ZM1120.55 92.9801C1120.55 94.6601 1120.95 96.2501 1121.75 97.7401C1122.55 99.2301 1123.91 99.9801 1125.85 99.9801C1126.23 99.9801 1126.59 99.9401 1126.92 99.8501V86.8001C1126.21 86.5101 1125.47 86.3601 1124.71 86.3601C1123.11 86.3601 1122.02 87.1501 1121.43 88.7201C1120.84 90.3001 1120.55 91.7201 1120.55 92.9801Z" fill="white"/>
<path d="M68.4085 65.9099C71.5185 65.8899 73.9885 67.1699 75.7885 69.6699C76.7985 71.0799 77.7385 72.5399 78.6885 73.9999C79.8685 75.8099 81.2485 77.4299 82.8485 78.8699C84.6685 80.5099 86.1385 82.4199 86.9785 84.7499C87.9585 87.4899 88.0185 90.1799 86.4585 92.7399C84.8185 95.4299 81.5485 96.9799 78.4885 96.4199C76.5885 96.0799 74.7185 95.5799 72.8485 95.0699C69.4585 94.1399 66.1485 94.3799 62.8185 95.4199C61.2785 95.8999 59.6685 96.1899 58.0685 96.4199C53.8085 97.0399 50.4985 93.9199 49.7485 90.2699C49.0285 86.7799 50.1585 83.7499 52.2485 81.0099C52.8885 80.1799 53.6285 79.4099 54.3985 78.7099C56.2785 77.0099 57.7585 74.9799 59.2285 72.9399C60.2485 71.5199 61.2985 70.0999 62.4285 68.7599C63.6685 67.2799 65.2285 66.2499 67.1885 65.9399C67.2785 65.9299 67.3685 65.8999 67.4585 65.8999C67.7685 65.8999 68.0885 65.8999 68.3985 65.8999L68.4085 65.9099Z" fill="white"/>
<path d="M66.2797 57.6998C66.2097 59.7098 65.9097 61.4098 65.0397 62.9498C63.1397 66.3598 59.5297 66.9098 56.7097 64.1898C54.9097 62.4598 53.9797 60.2698 53.6397 57.8298C53.3397 55.6898 53.5197 53.5898 54.4297 51.5998C55.1897 49.9598 56.3297 48.6898 58.1797 48.2598C60.1097 47.8198 61.6797 48.5898 63.0697 49.8698C64.8097 51.4698 65.6197 53.5398 66.0497 55.7998C66.1797 56.5098 66.2297 57.2298 66.2797 57.6998Z" fill="white"/>
<path d="M83.7083 55.9699C83.6583 58.9399 82.8683 61.5399 80.9683 63.7299C80.1083 64.7299 79.0583 65.4899 77.7483 65.7699C75.6183 66.2299 73.9483 65.4399 72.6783 63.7299C71.5483 62.1899 71.0683 60.3999 70.9883 58.5399C70.8683 55.7399 71.5283 53.1099 73.2683 50.8399C74.2083 49.6099 75.3783 48.6499 76.9183 48.2799C78.9283 47.7899 80.8483 48.5999 82.1383 50.4599C83.3083 52.1499 83.6783 54.0699 83.7083 55.9699Z" fill="white"/>
<path d="M54.3191 70.57C54.3291 71.96 54.0891 73.29 53.4091 74.51C52.0291 77 49.3891 77.86 46.8191 76.64C44.3291 75.46 42.9191 73.37 42.1091 70.84C41.4191 68.71 41.3691 66.55 42.1991 64.44C42.9291 62.58 44.2291 61.31 46.2891 61.07C47.9891 60.87 49.4291 61.55 50.7191 62.6C52.9491 64.43 54.2791 67.39 54.3191 70.57Z" fill="white"/>
<path d="M82.8496 70.7599C83.0296 67.1699 84.1896 64.2999 86.9696 62.2499C88.2096 61.3399 89.5996 60.8499 91.1796 61.1199C93.1096 61.4499 94.2796 62.6699 94.9896 64.3899C96.5996 68.2999 94.9096 73.7399 91.4096 76.0799C87.9496 78.3899 84.1496 76.9299 83.1696 72.8899C82.9796 72.1299 82.9396 71.3299 82.8596 70.7599H82.8496Z" fill="white"/>
<path d="M24.5605 49.9798L24.8105 51.2498C25.2905 50.7198 25.7505 50.1598 26.1705 49.5698C25.6405 49.7198 25.1105 49.8698 24.5605 49.9798Z" fill="white"/>
<path d="M157.13 67.5798L146.06 11.9498C144.46 3.9098 136.64 -1.3102 128.6 0.289804L35.5 18.8098L23.17 21.2598C18.45 22.1998 14.72 25.2898 12.75 29.2898C13.44 29.1898 14.14 29.1198 14.85 29.1198H39.89C39.83 28.5498 39.75 27.9698 39.64 27.3998L115.75 12.2598C117.82 22.6498 127.92 29.3998 138.31 27.3298L144.08 56.3098C141.54 56.8098 139.23 57.7998 137.2 59.1498V86.6598L145.47 85.0098C153.51 83.4098 158.73 75.5898 157.13 67.5498V67.5798Z" fill="white"/>
<path d="M122.34 29.1401H14.85C14.14 29.1401 13.44 29.2101 12.75 29.3101C5.55 30.3301 0 36.5101 0 43.9901V100.71C0 108.91 6.65 115.56 14.85 115.56H122.35C130.55 115.56 137.2 108.91 137.2 100.71V43.9901C137.2 35.7901 130.55 29.1401 122.35 29.1401H122.34ZM107.39 106.31H29.8C29.8 105.63 29.76 104.95 29.69 104.29C29.11 98.7401 26.15 93.9101 21.87 90.8001C18.71 88.5001 14.82 87.1301 10.61 87.1301V57.5801C12.17 57.5801 13.69 57.3701 15.14 57.0201C18.93 56.1001 22.27 54.0601 24.81 51.2601L24.56 49.9901C25.11 49.8801 25.64 49.7401 26.17 49.5801C28.44 46.4301 29.79 42.5701 29.79 38.3901H107.39C107.39 48.9901 115.98 57.5801 126.58 57.5801V87.1301C122.17 87.1301 118.12 88.6301 114.88 91.1401C110.33 94.6501 107.39 100.14 107.39 106.32V106.31Z" fill="white"/>
</g>
<defs>
<clipPath id="clip0_432_3664">
<rect width="1164" height="115.55" fill="white"/>
</clipPath>
</defs>
</svg>
